<?xml version="1.0" encoding="UTF-8"?>
<svg id="Layer_1" data-name="Layer 1" xmlns="http://www.w3.org/2000/svg" viewBox="0 0 714.18 111.64">
  <defs>
    <style>
      .cls-1 {
        stroke-width: 0px;
      }
    </style>
  </defs>
  <g>
    <path class="cls-1" d="m158.23,20.06c13.75,0,21.84,8.09,21.84,19.31,0,7.58-4.45,13.24-10.61,15.47,7.58,2.02,12.84,8.59,12.84,17.08,0,11.52-8.9,19.81-22.24,19.81h-26.49V20.06h24.67Zm-1.62,30.33c7.08,0,11.32-4.04,11.32-10.01s-4.25-10.01-11.62-10.01h-10.72v20.02h11.02Zm1.31,31.03c7.28,0,12.03-3.94,12.03-10.31s-4.14-10.51-11.63-10.51h-12.74v20.82h12.33Z"/>
    <path class="cls-1" d="m234.65,77.68c-2.63,8.59-10.41,15.57-22.24,15.57-13.34,0-25.17-9.71-25.17-26.38,0-15.57,11.52-25.88,23.96-25.88,15.16,0,24.06,10.01,24.06,25.58,0,1.92-.2,3.54-.3,3.74h-35.99c.3,7.48,6.17,12.84,13.44,12.84s10.72-3.74,12.33-8.59l9.91,3.13Zm-11.22-15.97c-.2-5.76-4.04-10.92-12.13-10.92-7.38,0-11.63,5.66-12.03,10.92h24.16Z"/>
    <path class="cls-1" d="m244.45,111.64l11.83-25.78-21.03-43.37h13.24l14.15,31.14,13.24-31.14h12.43l-31.34,69.15h-12.54Z"/>
    <path class="cls-1" d="m338.36,67.06c0,15.16-10.82,26.18-25.58,26.18s-25.47-11.02-25.47-26.18,10.82-26.08,25.47-26.08,25.58,11.02,25.58,26.08Zm-11.83,0c0-10.21-6.47-15.47-13.75-15.47s-13.75,5.26-13.75,15.47,6.57,15.67,13.75,15.67,13.75-5.36,13.75-15.67Z"/>
    <path class="cls-1" d="m356.47,91.73h-11.73v-49.23h11.42v6.57c3.23-5.66,9.1-7.99,14.56-7.99,12.03,0,17.79,8.69,17.79,19.51v31.14h-11.73v-29.11c0-6.06-2.73-10.92-10.11-10.92-6.67,0-10.21,5.16-10.21,11.62v28.41Z"/>
    <path class="cls-1" d="m444.62,82.73c0,4.45.4,8.19.5,9h-11.22c-.2-1.11-.51-4.35-.51-6.37-2.32,4.14-7.48,7.58-14.46,7.58-14.15,0-23.66-11.12-23.66-25.98s9.6-25.78,23.45-25.78c8.59,0,12.94,3.94,14.46,7.08v-29.72h11.42v64.19Zm-24.36-.1c7.68,0,13.04-6.37,13.04-15.77s-5.26-15.26-12.94-15.26-13.34,5.96-13.34,15.37,5.26,15.67,13.24,15.67Z"/>
  </g>
  <path class="cls-1" d="m55.71,0C24.99,0,0,24.99,0,55.71s24.99,55.71,55.71,55.71,55.71-24.99,55.71-55.71S86.43,0,55.71,0Zm0,103.4c-15.4,0-29.11-7.34-37.83-18.71,1.78.44,3.63.68,5.51.68,6.13,0,11.94-2.46,16.19-6.74,4.25,4.28,10.06,6.74,16.19,6.74s11.94-2.46,16.19-6.74c4.25,4.28,10.06,6.74,16.19,6.74,1.84,0,3.64-.22,5.39-.65-8.73,11.35-22.43,18.68-37.81,18.68Zm32.42-24.45c-5.41,0-10.47-2.67-13.54-7.15h-5.29c-3.06,4.48-8.13,7.15-13.54,7.15s-10.47-2.67-13.54-7.15h-5.29c-3.06,4.48-8.13,7.15-13.54,7.15-4.44,0-8.64-1.8-11.7-4.92-1.62-3.88-2.74-8.03-3.28-12.35,5.66-.31,10.97-2.72,14.93-6.7,4.25,4.28,10.06,6.74,16.19,6.74s11.94-2.46,16.19-6.74c4.25,4.28,10.05,6.74,16.19,6.74s11.94-2.46,16.19-6.74c3.95,3.98,9.26,6.39,14.93,6.7-.55,4.39-1.69,8.59-3.35,12.53-3.04,3.01-7.17,4.74-11.53,4.74ZM55.71,8.02c16.74,0,31.49,8.68,40,21.77-2.32,1.21-4.92,1.87-7.57,1.87-5.41,0-10.47-2.67-13.54-7.15h-5.29c-3.06,4.48-8.13,7.15-13.54,7.15s-10.47-2.67-13.54-7.15h-5.29c-3.06,4.48-8.13,7.15-13.54,7.15-2.72,0-5.32-.66-7.66-1.9,8.51-13.07,23.25-21.74,39.98-21.74Zm-32.32,30.05c6.13,0,11.94-2.46,16.19-6.74,4.25,4.28,10.06,6.74,16.19,6.74s11.94-2.46,16.19-6.74c4.25,4.28,10.05,6.74,16.19,6.74,3.75,0,7.43-.95,10.7-2.69,2.86,6.05,4.48,12.79,4.55,19.89-5.08-.27-9.76-2.89-12.66-7.12h-5.29c-3.07,4.47-8.13,7.15-13.54,7.15s-10.47-2.67-13.54-7.15h-5.29c-3.07,4.47-8.13,7.15-13.54,7.15s-10.47-2.67-13.54-7.15h-5.29c-2.9,4.23-7.58,6.85-12.66,7.12.06-7.12,1.69-13.87,4.56-19.93,3.3,1.77,7.02,2.73,10.79,2.73Z"/>
  <g>
    <path class="cls-1" d="m509.8,72.12c0,11.59-8.72,19.25-25.84,19.25h-27.97l5.85-7.02V30.65l-5.85-7.02h27.12c15.21,0,23.39,5.42,23.39,16.48,0,6.49-3.93,12.23-12.55,14.78,9.46,1.49,15.84,7.02,15.84,17.23Zm-35.41-46.47v29.24h7.76c8.83,0,12.55-6.27,12.55-14.46,0-8.72-5-14.78-13.4-14.78h-6.91Zm8.61,63.7c9.89,0,14.36-7.12,14.36-16.7s-4.25-15.74-15.1-15.74h-7.87v32.43h8.61Z"/>
    <path class="cls-1" d="m558.93,75.85l1.06.32c-2.55,9.78-11.06,16.27-21.8,16.27-14.57,0-23.61-10.31-23.61-25.42,0-17.23,11.38-25.95,24.35-25.95,14.14,0,21.48,9.15,21.59,21.69l-33.71.21v1.7c0,13.08,6.7,19.25,16.06,19.25,7.44,0,13.61-2.98,16.06-8.08Zm-32.01-14.57h22.22c-.21-12.44-4.36-18.61-10.42-18.61-5.1,0-11.06,4.36-11.8,18.61Z"/>
    <path class="cls-1" d="m605.72,82.23c0,5,2.66,5.1,6.38,5.1v1.06c-2.66,2.87-5.64,4.04-9.89,4.04s-7.66-2.02-8.08-7.76l-.11-.64c-3.83,5.74-9.46,8.4-15.95,8.4-8.61,0-14.04-5.42-14.04-12.76,0-9.78,8.4-16.38,29.99-17.65v-4.47c0-8.19-3.4-12.23-12.76-12.23-5.1,0-9.36,1.59-13.4,3.62l-.53-1.17c4.04-3.08,11.38-6.7,20.95-6.7,11.48,0,17.44,6.17,17.44,17.55v23.61Zm-11.7-.53v-18.18c-10.74,1.28-17.97,4.57-17.97,13.93,0,5.64,3.19,8.93,7.55,8.93,4.79,0,7.97-1.59,10.42-4.68Z"/>
    <path class="cls-1" d="m613.05,67.34c0-16.8,11.59-26.27,25.31-26.27,5.53,0,10.42.74,15.21,2.34v11.59l-12.12-12.12c-1.06-.21-1.91-.21-3.08-.21-7.23,0-12.97,8.61-12.97,21.48,0,14.04,6.81,19.78,15.74,19.78,6.7,0,12.55-3.3,14.67-8.08l1.17.32c-2.55,9.78-9.68,16.27-20.74,16.27-14.36,0-23.18-10.31-23.18-25.1Z"/>
    <path class="cls-1" d="m691.42,91.37l5.42-7.02v-26.37c0-6.81-2.98-10.1-9.15-10.1-5.1,0-9.36,2.02-12.33,4.89v31.58l5.42,7.02h-22.65l5.53-7.02V27.46l-5.53-7.23,17.23-2.34v32.86c3.83-4.57,10.21-9.68,19.03-9.68s14.14,6.38,14.14,17.12v26.16l5.64,7.02h-22.76Z"/>
  </g>
</svg>